<svg width="185" height="52" viewBox="0 0 185 52" fill="none" xmlns="http://www.w3.org/2000/svg">
<path d="M74.2031 26.5117H69.8203L69.7969 24.0977H73.4766C74.125 24.0977 74.6562 24.0156 75.0703 23.8516C75.4844 23.6797 75.793 23.4336 75.9961 23.1133C76.207 22.7852 76.3125 22.3867 76.3125 21.918C76.3125 21.3867 76.2109 20.957 76.0078 20.6289C75.8125 20.3008 75.5039 20.0625 75.082 19.9141C74.668 19.7656 74.1328 19.6914 73.4766 19.6914H71.0391V34H67.5234V16.9375H73.4766C74.4688 16.9375 75.3555 17.0312 76.1367 17.2188C76.9258 17.4062 77.5938 17.6914 78.1406 18.0742C78.6875 18.457 79.1055 18.9414 79.3945 19.5273C79.6836 20.1055 79.8281 20.793 79.8281 21.5898C79.8281 22.293 79.668 22.9414 79.3477 23.5352C79.0352 24.1289 78.5391 24.6133 77.8594 24.9883C77.1875 25.3633 76.3086 25.5703 75.2227 25.6094L74.2031 26.5117ZM74.0508 34H68.8594L70.2305 31.2578H74.0508C74.668 31.2578 75.1719 31.1602 75.5625 30.9648C75.9531 30.7617 76.2422 30.4883 76.4297 30.1445C76.6172 29.8008 76.7109 29.4062 76.7109 28.9609C76.7109 28.4609 76.625 28.0273 76.4531 27.6602C76.2891 27.293 76.0234 27.0117 75.6562 26.8164C75.2891 26.6133 74.8047 26.5117 74.2031 26.5117H70.8164L70.8398 24.0977H75.0586L75.8672 25.0469C76.9062 25.0312 77.7422 25.2148 78.375 25.5977C79.0156 25.9727 79.4805 26.4609 79.7695 27.0625C80.0664 27.6641 80.2148 28.3086 80.2148 28.9961C80.2148 30.0898 79.9766 31.0117 79.5 31.7617C79.0234 32.5039 78.3242 33.0625 77.4023 33.4375C76.4883 33.8125 75.3711 34 74.0508 34ZM82.1016 27.7891V27.543C82.1016 26.6133 82.2344 25.7578 82.5 24.9766C82.7656 24.1875 83.1523 23.5039 83.6602 22.9258C84.168 22.3477 84.793 21.8984 85.5352 21.5781C86.2773 21.25 87.1289 21.0859 88.0898 21.0859C89.0508 21.0859 89.9062 21.25 90.6562 21.5781C91.4062 21.8984 92.0352 22.3477 92.543 22.9258C93.0586 23.5039 93.4492 24.1875 93.7148 24.9766C93.9805 25.7578 94.1133 26.6133 94.1133 27.543V27.7891C94.1133 28.7109 93.9805 29.5664 93.7148 30.3555C93.4492 31.1367 93.0586 31.8203 92.543 32.4062C92.0352 32.9844 91.4102 33.4336 90.668 33.7539C89.9258 34.0742 89.0742 34.2344 88.1133 34.2344C87.1523 34.2344 86.2969 34.0742 85.5469 33.7539C84.8047 33.4336 84.1758 32.9844 83.6602 32.4062C83.1523 31.8203 82.7656 31.1367 82.5 30.3555C82.2344 29.5664 82.1016 28.7109 82.1016 27.7891ZM85.4766 27.543V27.7891C85.4766 28.3203 85.5234 28.8164 85.6172 29.2773C85.7109 29.7383 85.8594 30.1445 86.0625 30.4961C86.2734 30.8398 86.5469 31.1094 86.8828 31.3047C87.2188 31.5 87.6289 31.5977 88.1133 31.5977C88.582 31.5977 88.9844 31.5 89.3203 31.3047C89.6562 31.1094 89.9258 30.8398 90.1289 30.4961C90.332 30.1445 90.4805 29.7383 90.5742 29.2773C90.6758 28.8164 90.7266 28.3203 90.7266 27.7891V27.543C90.7266 27.0273 90.6758 26.543 90.5742 26.0898C90.4805 25.6289 90.3281 25.2227 90.1172 24.8711C89.9141 24.5117 89.6445 24.2305 89.3086 24.0273C88.9727 23.8242 88.5664 23.7227 88.0898 23.7227C87.6133 23.7227 87.207 23.8242 86.8711 24.0273C86.543 24.2305 86.2734 24.5117 86.0625 24.8711C85.8594 25.2227 85.7109 25.6289 85.6172 26.0898C85.5234 26.543 85.4766 27.0273 85.4766 27.543ZM95.6484 27.7891V27.543C95.6484 26.6133 95.7812 25.7578 96.0469 24.9766C96.3125 24.1875 96.6992 23.5039 97.207 22.9258C97.7148 22.3477 98.3398 21.8984 99.082 21.5781C99.8242 21.25 100.676 21.0859 101.637 21.0859C102.598 21.0859 103.453 21.25 104.203 21.5781C104.953 21.8984 105.582 22.3477 106.09 22.9258C106.605 23.5039 106.996 24.1875 107.262 24.9766C107.527 25.7578 107.66 26.6133 107.66 27.543V27.7891C107.66 28.7109 107.527 29.5664 107.262 30.3555C106.996 31.1367 106.605 31.8203 106.09 32.4062C105.582 32.9844 104.957 33.4336 104.215 33.7539C103.473 34.0742 102.621 34.2344 101.66 34.2344C100.699 34.2344 99.8438 34.0742 99.0938 33.7539C98.3516 33.4336 97.7227 32.9844 97.207 32.4062C96.6992 31.8203 96.3125 31.1367 96.0469 30.3555C95.7812 29.5664 95.6484 28.7109 95.6484 27.7891ZM99.0234 27.543V27.7891C99.0234 28.3203 99.0703 28.8164 99.1641 29.2773C99.2578 29.7383 99.4062 30.1445 99.6094 30.4961C99.8203 30.8398 100.094 31.1094 100.43 31.3047C100.766 31.5 101.176 31.5977 101.66 31.5977C102.129 31.5977 102.531 31.5 102.867 31.3047C103.203 31.1094 103.473 30.8398 103.676 30.4961C103.879 30.1445 104.027 29.7383 104.121 29.2773C104.223 28.8164 104.273 28.3203 104.273 27.7891V27.543C104.273 27.0273 104.223 26.543 104.121 26.0898C104.027 25.6289 103.875 25.2227 103.664 24.8711C103.461 24.5117 103.191 24.2305 102.855 24.0273C102.52 23.8242 102.113 23.7227 101.637 23.7227C101.16 23.7227 100.754 23.8242 100.418 24.0273C100.09 24.2305 99.8203 24.5117 99.6094 24.8711C99.4062 25.2227 99.2578 25.6289 99.1641 26.0898C99.0703 26.543 99.0234 27.0273 99.0234 27.543ZM113.109 15.9883V34H109.734V15.9883H113.109ZM121.102 21.3203L115.594 27.6016L112.641 30.5898L111.41 28.1523L113.754 25.1758L117.047 21.3203H121.102ZM117.598 34L113.848 28.1406L116.18 26.1016L121.488 34H117.598ZM137.625 29.5352C137.625 29.2305 137.578 28.957 137.484 28.7148C137.398 28.4648 137.234 28.2383 136.992 28.0352C136.75 27.8242 136.41 27.6172 135.973 27.4141C135.535 27.2109 134.969 27 134.273 26.7812C133.5 26.5312 132.766 26.25 132.07 25.9375C131.383 25.625 130.773 25.2617 130.242 24.8477C129.719 24.4258 129.305 23.9375 129 23.3828C128.703 22.8281 128.555 22.1836 128.555 21.4492C128.555 20.7383 128.711 20.0938 129.023 19.5156C129.336 18.9297 129.773 18.4297 130.336 18.0156C130.898 17.5938 131.562 17.2695 132.328 17.043C133.102 16.8164 133.949 16.7031 134.871 16.7031C136.129 16.7031 137.227 16.9297 138.164 17.3828C139.102 17.8359 139.828 18.457 140.344 19.2461C140.867 20.0352 141.129 20.9375 141.129 21.9531H137.637C137.637 21.4531 137.531 21.0156 137.32 20.6406C137.117 20.2578 136.805 19.957 136.383 19.7383C135.969 19.5195 135.445 19.4102 134.812 19.4102C134.203 19.4102 133.695 19.5039 133.289 19.6914C132.883 19.8711 132.578 20.1172 132.375 20.4297C132.172 20.7344 132.07 21.0781 132.07 21.4609C132.07 21.75 132.141 22.0117 132.281 22.2461C132.43 22.4805 132.648 22.6992 132.938 22.9023C133.227 23.1055 133.582 23.2969 134.004 23.4766C134.426 23.6562 134.914 23.832 135.469 24.0039C136.398 24.2852 137.215 24.6016 137.918 24.9531C138.629 25.3047 139.223 25.6992 139.699 26.1367C140.176 26.5742 140.535 27.0703 140.777 27.625C141.02 28.1797 141.141 28.8086 141.141 29.5117C141.141 30.2539 140.996 30.918 140.707 31.5039C140.418 32.0898 140 32.5859 139.453 32.9922C138.906 33.3984 138.254 33.707 137.496 33.918C136.738 34.1289 135.891 34.2344 134.953 34.2344C134.109 34.2344 133.277 34.125 132.457 33.9062C131.637 33.6797 130.891 33.3398 130.219 32.8867C129.555 32.4336 129.023 31.8555 128.625 31.1523C128.227 30.4492 128.027 29.6172 128.027 28.6562H131.555C131.555 29.1875 131.637 29.6367 131.801 30.0039C131.965 30.3711 132.195 30.668 132.492 30.8945C132.797 31.1211 133.156 31.2852 133.57 31.3867C133.992 31.4883 134.453 31.5391 134.953 31.5391C135.562 31.5391 136.062 31.4531 136.453 31.2812C136.852 31.1094 137.145 30.8711 137.332 30.5664C137.527 30.2617 137.625 29.918 137.625 29.5352ZM149.531 21.3203V23.7109H142.148V21.3203H149.531ZM143.977 18.1914H147.352V30.1797C147.352 30.5469 147.398 30.8281 147.492 31.0234C147.594 31.2188 147.742 31.3555 147.938 31.4336C148.133 31.5039 148.379 31.5391 148.676 31.5391C148.887 31.5391 149.074 31.5312 149.238 31.5156C149.41 31.4922 149.555 31.4688 149.672 31.4453L149.684 33.9297C149.395 34.0234 149.082 34.0977 148.746 34.1523C148.41 34.207 148.039 34.2344 147.633 34.2344C146.891 34.2344 146.242 34.1133 145.688 33.8711C145.141 33.6211 144.719 33.2227 144.422 32.6758C144.125 32.1289 143.977 31.4102 143.977 30.5195V18.1914ZM150.609 27.7891V27.543C150.609 26.6133 150.742 25.7578 151.008 24.9766C151.273 24.1875 151.66 23.5039 152.168 22.9258C152.676 22.3477 153.301 21.8984 154.043 21.5781C154.785 21.25 155.637 21.0859 156.598 21.0859C157.559 21.0859 158.414 21.25 159.164 21.5781C159.914 21.8984 160.543 22.3477 161.051 22.9258C161.566 23.5039 161.957 24.1875 162.223 24.9766C162.488 25.7578 162.621 26.6133 162.621 27.543V27.7891C162.621 28.7109 162.488 29.5664 162.223 30.3555C161.957 31.1367 161.566 31.8203 161.051 32.4062C160.543 32.9844 159.918 33.4336 159.176 33.7539C158.434 34.0742 157.582 34.2344 156.621 34.2344C155.66 34.2344 154.805 34.0742 154.055 33.7539C153.312 33.4336 152.684 32.9844 152.168 32.4062C151.66 31.8203 151.273 31.1367 151.008 30.3555C150.742 29.5664 150.609 28.7109 150.609 27.7891ZM153.984 27.543V27.7891C153.984 28.3203 154.031 28.8164 154.125 29.2773C154.219 29.7383 154.367 30.1445 154.57 30.4961C154.781 30.8398 155.055 31.1094 155.391 31.3047C155.727 31.5 156.137 31.5977 156.621 31.5977C157.09 31.5977 157.492 31.5 157.828 31.3047C158.164 31.1094 158.434 30.8398 158.637 30.4961C158.84 30.1445 158.988 29.7383 159.082 29.2773C159.184 28.8164 159.234 28.3203 159.234 27.7891V27.543C159.234 27.0273 159.184 26.543 159.082 26.0898C158.988 25.6289 158.836 25.2227 158.625 24.8711C158.422 24.5117 158.152 24.2305 157.816 24.0273C157.48 23.8242 157.074 23.7227 156.598 23.7227C156.121 23.7227 155.715 23.8242 155.379 24.0273C155.051 24.2305 154.781 24.5117 154.57 24.8711C154.367 25.2227 154.219 25.6289 154.125 26.0898C154.031 26.543 153.984 27.0273 153.984 27.543ZM168.07 24.0859V34H164.695V21.3203H167.871L168.07 24.0859ZM171.891 21.2383L171.832 24.3672C171.668 24.3438 171.469 24.3242 171.234 24.3086C171.008 24.2852 170.801 24.2734 170.613 24.2734C170.137 24.2734 169.723 24.3359 169.371 24.4609C169.027 24.5781 168.738 24.7539 168.504 24.9883C168.277 25.2227 168.105 25.5078 167.988 25.8438C167.879 26.1797 167.816 26.5625 167.801 26.9922L167.121 26.7812C167.121 25.9609 167.203 25.207 167.367 24.5195C167.531 23.8242 167.77 23.2188 168.082 22.7031C168.402 22.1875 168.793 21.7891 169.254 21.5078C169.715 21.2266 170.242 21.0859 170.836 21.0859C171.023 21.0859 171.215 21.1016 171.41 21.1328C171.605 21.1562 171.766 21.1914 171.891 21.2383ZM179.086 34.2344C178.102 34.2344 177.219 34.0781 176.438 33.7656C175.656 33.4453 174.992 33.0039 174.445 32.4414C173.906 31.8789 173.492 31.2266 173.203 30.4844C172.914 29.7344 172.77 28.9375 172.77 28.0938V27.625C172.77 26.6641 172.906 25.7852 173.18 24.9883C173.453 24.1914 173.844 23.5 174.352 22.9141C174.867 22.3281 175.492 21.8789 176.227 21.5664C176.961 21.2461 177.789 21.0859 178.711 21.0859C179.609 21.0859 180.406 21.2344 181.102 21.5312C181.797 21.8281 182.379 22.25 182.848 22.7969C183.324 23.3438 183.684 24 183.926 24.7656C184.168 25.5234 184.289 26.3672 184.289 27.2969V28.7031H174.211V26.4531H180.973V26.1953C180.973 25.7266 180.887 25.3086 180.715 24.9414C180.551 24.5664 180.301 24.2695 179.965 24.0508C179.629 23.832 179.199 23.7227 178.676 23.7227C178.23 23.7227 177.848 23.8203 177.527 24.0156C177.207 24.2109 176.945 24.4844 176.742 24.8359C176.547 25.1875 176.398 25.6016 176.297 26.0781C176.203 26.5469 176.156 27.0625 176.156 27.625V28.0938C176.156 28.6016 176.227 29.0703 176.367 29.5C176.516 29.9297 176.723 30.3008 176.988 30.6133C177.262 30.9258 177.59 31.168 177.973 31.3398C178.363 31.5117 178.805 31.5977 179.297 31.5977C179.906 31.5977 180.473 31.4805 180.996 31.2461C181.527 31.0039 181.984 30.6406 182.367 30.1562L184.008 31.9375C183.742 32.3203 183.379 32.6875 182.918 33.0391C182.465 33.3906 181.918 33.6797 181.277 33.9062C180.637 34.125 179.906 34.2344 179.086 34.2344Z" fill="#1D1D1D"/>
<path d="M29.3433 10.65L46.1416 0.780273V9.36441L29.3433 10.65Z" fill="#B8E8F2"/>
<path d="M29.3433 10.6501L49.7233 3.09448V9.2157L29.3433 10.6501Z" fill="#88CFE5"/>
<path d="M29.3432 10.6501L7.51074 0V8.34957L29.3432 10.6501Z" fill="#B8E8F2"/>
<path d="M29.3432 10.65L2.90967 1.92603V7.81268L29.3432 10.65Z" fill="#88CFE5"/>
<path d="M29.3791 51.8476L0.0315758 46.1685L0 4.96191L29.3475 10.6456L29.3791 51.8476Z" fill="#472758"/>
<path d="M58.7946 34.0297C58.7946 41.3192 53.0748 47.1968 45.9973 48.5772L29.3478 51.8159L29.3433 10.65L44.8606 7.63224C51.7667 6.28801 57.3782 9.84256 57.3782 16.9607C57.3782 20.3709 56.0745 23.33 53.9274 25.6891C56.8684 27.0514 58.79 29.8527 58.7946 34.0297ZM38.4055 17.7095V24.999L44.8606 23.7405C46.8995 23.3435 48.3159 21.5392 48.3159 19.4236C48.3159 17.308 46.9581 16.045 44.8606 16.4509L38.4055 17.7095ZM49.7323 35.0852C49.7323 32.7937 48.2617 31.4315 45.9928 31.8735L38.4055 33.3486V41.229L45.9928 39.754C48.2617 39.3164 49.7323 37.3813 49.7323 35.0852Z" fill="#4D2C5E"/>
</svg>
